<svg xmlns="http://www.w3.org/2000/svg" xmlns:xlink="http://www.w3.org/1999/xlink" width="1059.61" height="165.86" viewBox="0.00 0.00 1059.61 165.86" preserveAspectRatio="xMidYMid meet" id="graph-diagram"><defs><defs><style type="text/css">@import url('https://fonts.googleapis.com/css?family=Roboto+Condensed:400,700');</style></defs></defs>
<g id="graph0" class="graph" transform="scale(1 1) rotate(0) translate(4 161.86)">

<text text-anchor="middle" x="525.8" y="-139.46" font-family="Roboto Condensed, sans-serif" font-size="16.00">react-immutable-form</text>
<!-- react&#45;immutable&#45;form@1.0.9 -->
<g id="node1" class="node selected" data-module="react-immutable-form@1.0.9">
<title>react-immutable-form@1.0.9</title>
<path fill="none" stroke="black" d="M385.23,-89.35C385.23,-89.35 12,-89.35 12,-89.35 6,-89.35 0,-83.35 0,-77.35 0,-77.35 0,-55.61 0,-55.61 0,-49.61 6,-43.61 12,-43.61 12,-43.61 385.23,-43.61 385.23,-43.61 391.23,-43.61 397.23,-49.61 397.23,-55.61 397.23,-55.61 397.23,-77.35 397.23,-77.35 397.23,-83.35 391.23,-89.35 385.23,-89.35" data-darkreader-inline-stroke="" style="--darkreader-inline-stroke: #e8e6e3;"></path>
<text text-anchor="middle" x="198.61" y="-56.49" font-family="Roboto Condensed, sans-serif" font-size="33.32">react-immutable-form@1.0.9</text>
</g>
<!-- immutable@4.3.6 -->
<g id="node2" class="node downstream" data-module="immutable@4.3.6">
<title>immutable@4.3.6</title>
<path fill="none" stroke="black" d="M730.53,-130.66C730.53,-130.66 445.23,-130.66 445.23,-130.66 439.23,-130.66 433.23,-124.66 433.23,-118.66 433.23,-118.66 433.23,-86.3 433.23,-86.3 433.23,-80.3 439.23,-74.3 445.23,-74.3 445.23,-74.3 730.53,-74.3 730.53,-74.3 736.53,-74.3 742.53,-80.3 742.53,-86.3 742.53,-86.3 742.53,-118.66 742.53,-118.66 742.53,-124.66 736.53,-130.66 730.53,-130.66" data-darkreader-inline-stroke="" style="--darkreader-inline-stroke: #e8e6e3;"></path>
<text text-anchor="middle" x="587.88" y="-89.83" font-family="Roboto Condensed, sans-serif" font-size="42.17">immutable@4.3.6</text>
</g>
<!-- react&#45;immutable&#45;form@1.0.9&#45;&gt;immutable@4.3.6 -->

<!-- react@17.0.2 -->
<g id="node3" class="node downstream" data-module="react@17.0.2">
<title>react@17.0.2</title>
<path fill="none" stroke="black" d="M680.94,-56.22C680.94,-56.22 494.81,-56.22 494.81,-56.22 488.81,-56.22 482.81,-50.22 482.81,-44.22 482.81,-44.22 482.81,-16.74 482.81,-16.74 482.81,-10.74 488.81,-4.74 494.81,-4.74 494.81,-4.74 680.94,-4.74 680.94,-4.74 686.94,-4.74 692.94,-10.74 692.94,-16.74 692.94,-16.74 692.94,-44.22 692.94,-44.22 692.94,-50.22 686.94,-56.22 680.94,-56.22" data-darkreader-inline-stroke="" style="--darkreader-inline-stroke: #e8e6e3;"></path>
<text text-anchor="middle" x="587.88" y="-19.05" font-family="Roboto Condensed, sans-serif" font-size="38.10">react@17.0.2</text>
</g>
<!-- react&#45;immutable&#45;form@1.0.9&#45;&gt;react@17.0.2 -->

<!-- loose&#45;envify@1.4.0 -->
<g id="node4" class="node downstream" data-module="loose-envify@1.4.0">
<title>loose-envify@1.4.0</title>
<path fill="none" stroke="black" d="M928.31,-66.01C928.31,-66.01 788.21,-66.01 788.21,-66.01 783.37,-66.01 778.53,-61.16 778.53,-56.32 778.53,-56.32 778.53,-46.64 778.53,-46.64 778.53,-41.8 783.37,-36.95 788.21,-36.95 788.21,-36.95 928.31,-36.95 928.31,-36.95 933.15,-36.95 938,-41.8 938,-46.64 938,-46.64 938,-56.32 938,-56.32 938,-61.16 933.15,-66.01 928.31,-66.01" data-darkreader-inline-stroke="" style="--darkreader-inline-stroke: #e8e6e3;"></path>
<text text-anchor="middle" x="858.26" y="-45.66" font-family="Roboto Condensed, sans-serif" font-size="19.41">loose-envify@1.4.0</text>
</g>
<!-- react@17.0.2&#45;&gt;loose&#45;envify@1.4.0 -->

<!-- object&#45;assign@4.1.1 -->
<g id="node5" class="node downstream" data-module="object-assign@4.1.1">
<title>object-assign@4.1.1</title>
<path fill="none" stroke="black" d="M899.91,-18.96C899.91,-18.96 816.62,-18.96 816.62,-18.96 813.46,-18.96 810.3,-15.8 810.3,-12.64 810.3,-12.64 810.3,-6.32 810.3,-6.32 810.3,-3.16 813.46,0 816.62,0 816.62,0 899.91,0 899.91,0 903.07,0 906.23,-3.16 906.23,-6.32 906.23,-6.32 906.23,-12.64 906.23,-12.64 906.23,-15.8 903.07,-18.96 899.91,-18.96" data-darkreader-inline-stroke="" style="--darkreader-inline-stroke: #e8e6e3;"></path>
<text text-anchor="middle" x="858.26" y="-6.18" font-family="Roboto Condensed, sans-serif" font-size="11.00">object-assign@4.1.1</text>
</g>
<!-- react@17.0.2&#45;&gt;object&#45;assign@4.1.1 -->

<!-- js&#45;tokens@4.0.0 -->
<g id="node6" class="node downstream" data-module="js-tokens@4.0.0">
<title>js-tokens@4.0.0</title>
<path fill="none" stroke="black" d="M1045.29,-60.96C1045.29,-60.96 980.32,-60.96 980.32,-60.96 977.16,-60.96 974,-57.8 974,-54.64 974,-54.64 974,-48.32 974,-48.32 974,-45.16 977.16,-42 980.32,-42 980.32,-42 1045.29,-42 1045.29,-42 1048.45,-42 1051.61,-45.16 1051.61,-48.32 1051.61,-48.32 1051.61,-54.64 1051.61,-54.64 1051.61,-57.8 1048.45,-60.96 1045.29,-60.96" data-darkreader-inline-stroke="" style="--darkreader-inline-stroke: #e8e6e3;"></path>
<text text-anchor="middle" x="1012.8" y="-48.18" font-family="Roboto Condensed, sans-serif" font-size="11.00">js-tokens@4.0.0</text>
</g>
<!-- loose&#45;envify@1.4.0&#45;&gt;js&#45;tokens@4.0.0 -->

<g id="edge2" class="edge downstream">
<title>react-immutable-form@1.0.9-&gt;react@17.0.2</title>
<path fill="none" stroke="black" d="M397.5,-48.08C422.71,-45.74 447.83,-43.41 471.14,-41.24" data-darkreader-inline-stroke="" style="--darkreader-inline-stroke: #e8e6e3;"></path>
<polygon fill="black" stroke="black" points="471.29,-44.74 480.93,-40.33 470.64,-37.77 471.29,-44.74" data-darkreader-inline-fill="" data-darkreader-inline-stroke="" style="--darkreader-inline-fill: #e8e6e3; --darkreader-inline-stroke: #e8e6e3;"></polygon>
</g><g id="edge4" class="edge downstream">
<title>react@17.0.2-&gt;loose-envify@1.4.0</title>
<path fill="none" stroke="black" d="M693.41,-38.66C717.7,-40.56 743.35,-42.57 766.96,-44.41" data-darkreader-inline-stroke="" style="--darkreader-inline-stroke: #e8e6e3;"></path>
<polygon fill="black" stroke="black" points="766.62,-47.9 776.86,-45.19 767.16,-40.92 766.62,-47.9" data-darkreader-inline-fill="" data-darkreader-inline-stroke="" style="--darkreader-inline-fill: #e8e6e3; --darkreader-inline-stroke: #e8e6e3;"></polygon>
</g><g id="edge3" class="edge downstream">
<title>react@17.0.2-&gt;object-assign@4.1.1</title>
<path fill="none" stroke="black" d="M693.41,-22.3C729.17,-19.5 767.89,-16.47 798.7,-14.06" data-darkreader-inline-stroke="" style="--darkreader-inline-stroke: #e8e6e3;"></path>
<polygon fill="black" stroke="black" points="798.9,-17.56 808.6,-13.29 798.35,-10.58 798.9,-17.56" data-darkreader-inline-fill="" data-darkreader-inline-stroke="" style="--darkreader-inline-fill: #e8e6e3; --darkreader-inline-stroke: #e8e6e3;"></polygon>
</g><g id="edge5" class="edge downstream">
<title>loose-envify@1.4.0-&gt;js-tokens@4.0.0</title>
<path fill="none" stroke="black" d="M938.21,-51.48C946.42,-51.48 954.58,-51.48 962.33,-51.48" data-darkreader-inline-stroke="" style="--darkreader-inline-stroke: #e8e6e3;"></path>
<polygon fill="black" stroke="black" points="962.19,-54.98 972.19,-51.48 962.19,-47.98 962.19,-54.98" data-darkreader-inline-fill="" data-darkreader-inline-stroke="" style="--darkreader-inline-fill: #e8e6e3; --darkreader-inline-stroke: #e8e6e3;"></polygon>
</g><g id="edge1" class="edge downstream">
<title>react-immutable-form@1.0.9-&gt;immutable@4.3.6</title>
<path fill="none" stroke="black" d="M397.5,-84.88C405.54,-85.62 413.57,-86.37 421.54,-87.11" data-darkreader-inline-stroke="" style="--darkreader-inline-stroke: #e8e6e3;"></path>
<polygon fill="black" stroke="black" points="420.96,-90.57 431.24,-88.01 421.61,-83.6 420.96,-90.57" data-darkreader-inline-fill="" data-darkreader-inline-stroke="" style="--darkreader-inline-fill: #e8e6e3; --darkreader-inline-stroke: #e8e6e3;"></polygon>
</g></g>
<style>:root{--lightningcss-light:initial;--lightningcss-dark: ;--lightningcss-light:initial;--lightningcss-dark: ;color-scheme:light dark;--grey0:#000;--grey10:#1a1a1a;--grey20:#333;--grey30:#4d4d4d;--grey40:#666;--grey50:gray;--grey60:#999;--grey70:#b3b3b3;--grey80:#ccc;--grey90:#e6e6e6;--grey100:#fff;--rad_sm:5px;--rad_lg:10px;--inspector-size:32em;--tabs-height:24pt;--bg-gradient:linear-gradient(to bottom,rgba(255,255,255,.2),transparent 100%);--text:#020303;--text-dim:#999;--bg0:#f1f4f4;--bg1:#bbb;--bg2:#ddd;--tabs-bg:#7e7e7d;--tabs-text:#fff;--highlight:#e65c00;--stroke-L:40%;--stroke-S:100%;--stroke-blue:hsl(180,var(--stroke-S),var(--stroke-L));--stroke-orange:hsl(30,var(--stroke-S),var(--stroke-L));--stroke-green:hsl(120,var(--stroke-S),var(--stroke-L));--stroke-indigo:hsl(240,var(--stroke-S),var(--stroke-L));--stroke-red:hsl(0,var(--stroke-S),var(--stroke-L));--stroke-violet:hsl(300,var(--stroke-S),var(--stroke-L));--stroke-yellow:hsl(60,var(--stroke-S),var(--stroke-L));--bg-L:70%;--bg-S:100%;--bg-dark-L:50%;--bg-dark-S:60%;--bg-blue:hsl(180,var(--bg-S),var(--bg-L));--bg-green:hsl(120,var(--bg-S),var(--bg-L));--bg-indigo:hsl(240,var(--bg-S),var(--bg-L));--bg-orange:hsl(30,var(--bg-S),var(--bg-L));--bg-red:hsl(0,var(--bg-S),var(--bg-L));--bg-violet:hsl(300,var(--bg-S),var(--bg-L));--bg-yellow:hsl(60,var(--bg-S),var(--bg-L));--bg-darkblue:hsl(180,var(--bg-dark-S),var(--bg-dark-L));--bg-darkgreen:hsl(120,var(--bg-dark-S),var(--bg-dark-L));--bg-darkindigo:hsl(240,var(--bg-dark-S),var(--bg-dark-L));--bg-darkorange:hsl(30,var(--bg-dark-S),var(--bg-dark-L));--bg-darkred:hsl(0,var(--bg-dark-S),var(--bg-dark-L));--bg-darkviolet:hsl(300,var(--bg-dark-S),var(--bg-dark-L));--bg-darkyellow:hsl(60,var(--bg-dark-S),var(--bg-dark-L))}@media (prefers-color-scheme:dark){:root{--lightningcss-light: ;--lightningcss-dark:initial;--grey100:#000;--grey90:#1a1a1a;--grey80:#333;--grey70:#4d4d4d;--grey60:#666;--grey50:gray;--grey40:#999;--grey30:#b3b3b3;--grey20:#ccc;--grey10:#e6e6e6;--grey0:#fff;--text:#f3f3f3;--text-dim:#766;--bg0:#262222;--bg1:#696666;--bg2:#333;--stroke-L:60%;--bg-L:30%;--bg-dark-L:40%;--highlight:#ff761a;--inset-shadow-color:black;background-color:#111}}html{font-family:system-ui,-apple-system,BlinkMacSystemFont,Segoe UI,Roboto,Noto Sans,Ubuntu,Cantarell,Helvetica Neue,Helvetica,Arial,sans-serif,Apple Color Emoji,Segoe UI Emoji;font-size:10pt}html,body{margin:0;padding:0}p{line-height:1.5em}h2{border-radius:var(--rad_sm);font-size:14pt}kbd{color:color-mix(in srgb,currentcolor 30%,transparent);white-space:nowrap;border:1px solid;border-radius:.3em;padding:.2em .3em;line-height:1}#app{display:-ms-flexbox;display:flex;position:fixed;top:0;bottom:0;left:0;right:0}</style><style>#graph{-webkit-user-select:none;-ms-user-select:none;user-select:none;--warning0:#f6f6e0;--warning1:#d9d9d9;--stub:red;-ms-flex-positive:1;flex-grow:1;height:100vh;position:relative;overflow:auto}#graph.centered{-ms-flex-pack:center;justify-content:center;-ms-flex-align:center;align-items:center;display:-ms-flexbox;display:flex}#graph.graphviz-loading,#graph.graphviz-failed{text-align:center;margin-top:20vh}#graph.graphviz-failed{color:var(--stroke-red)}@media (prefers-color-scheme:dark){#graph{--warning0:#101010;--warning1:#660}}#graph-controls{cursor:default;display:-ms-flexbox;display:flex;position:fixed;bottom:1em;left:1em}#graph-controls button{border:solid 1px var(--bg1);border-radius:var(--rad_sm);background:var(--bg0);color:var(--text);outline:0;margin:0;font-size:1.8em;line-height:1em;display:inline-block}#graph-controls button.selected{background-color:var(--highlight)}svg#graph-diagram{fill:var(--text)}pattern#warning .line0{stroke:var(--warning0)}pattern#warning .line1{stroke:var(--warning1)}g .stub{opacity:.6}g .stub>path{stroke-dasharray:4 4;stroke:var(--stub)}g.node text{fill:var(--text)}g.node path{stroke:var(--text);fill:var(--bg0)}g.node.collapsed{opacity:.5}g.node.selected>path{stroke-width:3px;stroke:var(--highlight)!important}g.node.upstream>path{stroke:var(--stroke-blue)}g.node.downstream>path{stroke:var(--stroke-violet)}g.node.unselected{opacity:.35}g.node.warning>path{fill:url(#warning)}g.node *{cursor:pointer}g.edge{--selected-edge-width:1}g.edge>path{stroke:var(--text)}g.edge>polygon{stroke:var(--text);fill:var(--text)}g.edge.upstream>path{stroke:var(--stroke-blue);stroke-width:var(--selected-edge-width)}g.edge.upstream>polygon{stroke:var(--stroke-blue);fill:var(--stroke-blue)}g.edge.downstream>path{stroke:var(--stroke-violet);stroke-width:var(--selected-edge-width)}g.edge.downstream>polygon{stroke:var(--stroke-violet);fill:var(--stroke-violet)}g.edge.unselected{opacity:.35}@media print{#graph-controls{display:none}}</style></svg>